<?xml version="1.0" encoding="UTF-8" standalone="no"?>
<!DOCTYPE svg PUBLIC "-//W3C//DTD SVG 1.1//EN"
 "http://www.w3.org/Graphics/SVG/1.1/DTD/svg11.dtd">
<!-- Generated by graphviz version 2.26.3 (20100126.1600)
 -->
<!-- Title: d Pages: 1 -->
<svg width="948pt" height="592pt"
 viewBox="0.00 0.00 948.00 592.00" xmlns="http://www.w3.org/2000/svg" xmlns:xlink="http://www.w3.org/1999/xlink">
<g id="graph1" class="graph" transform="scale(1 1) rotate(0) translate(4 588)">
<title>d</title>
<polygon fill="white" stroke="white" points="-4,5 -4,-588 945,-588 945,5 -4,5"/>
<g id="graph2" class="cluster"><title>cluster_CookieMonster</title>
<polygon fill="none" stroke="black" stroke-dasharray="1,5" points="8,-82 8,-576 292,-576 292,-82 8,-82"/>
<text text-anchor="middle" x="150" y="-559.4" font-family="Times,serif" font-size="14.00">CookieMonster</text>
</g>
<g id="graph3" class="cluster"><title>cluster_PersistentCookieStore</title>
<polygon fill="none" stroke="black" stroke-dasharray="1,5" points="330,-253 330,-467 575,-467 575,-253 330,-253"/>
<text text-anchor="middle" x="452.5" y="-450.4" font-family="Times,serif" font-size="14.00">CookieMonster::PersistentCookieStore/</text>
<text text-anchor="middle" x="452.5" y="-435.4" font-family="Times,serif" font-size="14.00">SQLitePersistentCookieStore</text>
</g>
<g id="graph4" class="cluster"><title>cluster_BackingStore</title>
<polygon fill="none" stroke="black" stroke-dasharray="1,5" points="583,-8 583,-343 871,-343 871,-8 583,-8"/>
<text text-anchor="middle" x="727" y="-326.4" font-family="Times,serif" font-size="14.00">SQLListPersistentCookieStore::</text>
<text text-anchor="middle" x="727" y="-311.4" font-family="Times,serif" font-size="14.00">Backing Store</text>
</g>
<g id="graph5" class="cluster"><title>cluster_legend</title>
<polygon fill="none" stroke="black" points="583,-377 583,-576 932,-576 932,-377 583,-377"/>
<text text-anchor="middle" x="757.5" y="-559.4" font-family="Times,serif" font-size="14.00">Legend</text>
</g>
<!-- CookieOp -->
<g id="node2" class="node"><title>CookieOp</title>
<polygon fill="powderblue" stroke="black" points="284,-421 182,-421 182,-385 284,-385 284,-421"/>
<text text-anchor="middle" x="233" y="-397.9" font-family="Times,serif" font-size="14.00">Set/GetCookie</text>
</g>
<!-- CompleteLoad -->
<g id="node3" class="node"><title>CompleteLoad</title>
<polygon fill="powderblue" stroke="black" points="284,-200 182,-200 182,-164 284,-164 284,-200"/>
<text text-anchor="middle" x="233" y="-176.9" font-family="Times,serif" font-size="14.00">CompleteLoad</text>
</g>
<!-- CookieOp&#45;&gt;CompleteLoad -->
<!-- key_task -->
<g id="node7" class="node"><title>key_task</title>
<ellipse fill="powderblue" stroke="black" cx="198" cy="-279" rx="65.7609" ry="26.8701"/>
<text text-anchor="middle" x="198" y="-281.4" font-family="Times,serif" font-size="14.00">Key&#45;&gt;Task</text>
<text text-anchor="middle" x="198" y="-266.4" font-family="Times,serif" font-size="14.00">Callback List</text>
</g>
<!-- CookieOp&#45;&gt;key_task -->
<g id="edge3" class="edge"><title>CookieOp&#45;&gt;key_task</title>
<path fill="none" stroke="orange" d="M194.382,-384.938C187.8,-380.071 181.853,-374.128 178,-367 169.342,-350.986 172.664,-331.38 178.874,-314.741"/>
<polygon fill="orange" stroke="orange" points="182.177,-315.914 182.796,-305.338 175.717,-313.22 182.177,-315.914"/>
<text text-anchor="middle" x="228" y="-353.9" font-family="Times,serif" font-size="14.00">if key not loaded</text>
</g>
<!-- IO_LoadKeyCookies -->
<g id="node17" class="node"><title>IO_LoadKeyCookies</title>
<polygon fill="powderblue" stroke="black" points="552,-297 434,-297 434,-261 552,-261 552,-297"/>
<text text-anchor="middle" x="493" y="-273.9" font-family="Times,serif" font-size="14.00">LoadKeyCookies</text>
</g>
<!-- CookieOp&#45;&gt;IO_LoadKeyCookies -->
<g id="edge32" class="edge"><title>CookieOp&#45;&gt;IO_LoadKeyCookies</title>
<path fill="none" stroke="black" d="M284.263,-385.119C321.595,-372.249 368.983,-356.265 389,-351 406.955,-346.277 413.645,-351.786 430,-343 447.061,-333.834 462.398,-318.495 473.668,-305.131"/>
<polygon fill="black" stroke="black" points="476.566,-307.113 480.138,-297.138 471.125,-302.709 476.566,-307.113"/>
<text text-anchor="middle" x="439" y="-353.9" font-family="Times,serif" font-size="14.00">if key not loaded</text>
</g>
<!-- CookieCallback -->
<g id="node30" class="node"><title>CookieCallback</title>
<polygon fill="powderblue" stroke="black" points="480,-126 302,-126 302,-90 480,-90 480,-126"/>
<text text-anchor="middle" x="391" y="-102.9" font-family="Times,serif" font-size="14.00">&lt;CookieCallbackFunction&gt;</text>
</g>
<!-- CookieOp&#45;&gt;CookieCallback -->
<g id="edge36" class="edge"><title>CookieOp&#45;&gt;CookieCallback</title>
<path fill="none" stroke="black" d="M266.578,-384.973C273.735,-379.915 280.719,-373.884 286,-367 318.94,-324.066 305.959,-302.267 326,-252 342.427,-210.796 364.039,-164.185 377.729,-135.442"/>
<polygon fill="black" stroke="black" points="380.891,-136.944 382.05,-126.413 374.576,-133.923 380.891,-136.944"/>
<text text-anchor="middle" x="380" y="-220.9" font-family="Times,serif" font-size="14.00">if key loaded</text>
</g>
<!-- loaded_keys_ -->
<g id="node5" class="node"><title>loaded_keys_</title>
<ellipse fill="powderblue" stroke="black" cx="78" cy="-108" rx="61.8953" ry="18"/>
<text text-anchor="middle" x="78" y="-102.9" font-family="Times,serif" font-size="14.00">loaded_keys_</text>
</g>
<!-- CompleteLoad&#45;&gt;loaded_keys_ -->
<g id="edge7" class="edge"><title>CompleteLoad&#45;&gt;loaded_keys_</title>
<path fill="none" stroke="orange" d="M195.083,-163.898C172.138,-152.943 142.865,-138.968 119.329,-127.731"/>
<polygon fill="orange" stroke="orange" points="120.82,-124.565 110.288,-123.415 117.805,-130.882 120.82,-124.565"/>
</g>
<!-- cookie_store_ -->
<g id="node6" class="node"><title>cookie_store_</title>
<ellipse fill="powderblue" stroke="black" cx="221" cy="-108" rx="63.1928" ry="18"/>
<text text-anchor="middle" x="221" y="-102.9" font-family="Times,serif" font-size="14.00">cookie_store_</text>
</g>
<!-- CompleteLoad&#45;&gt;cookie_store_ -->
<g id="edge9" class="edge"><title>CompleteLoad&#45;&gt;cookie_store_</title>
<path fill="none" stroke="orange" d="M230.034,-163.708C228.682,-155.374 227.052,-145.322 225.551,-136.063"/>
<polygon fill="orange" stroke="orange" points="228.988,-135.393 223.932,-126.082 222.078,-136.513 228.988,-135.393"/>
</g>
<!-- CompleteLoad&#45;&gt;CookieCallback -->
<g id="edge40" class="edge"><title>CompleteLoad&#45;&gt;CookieCallback</title>
<path fill="none" stroke="black" d="M245.839,-163.689C251.593,-156.651 258.908,-149.092 267,-144 275.842,-138.435 285.574,-133.703 295.58,-129.686"/>
<polygon fill="black" stroke="black" points="297.112,-132.849 305.236,-126.049 294.644,-126.298 297.112,-132.849"/>
</g>
<!-- Constructor -->
<g id="node4" class="node"><title>Constructor</title>
<polygon fill="powderblue" stroke="black" points="279,-545 197,-545 197,-509 279,-509 279,-545"/>
<text text-anchor="middle" x="238" y="-521.9" font-family="Times,serif" font-size="14.00">Constructor</text>
</g>
<!-- Constructor&#45;&gt;CookieOp -->
<!-- IO_SpawnFullLoad -->
<g id="node16" class="node"><title>IO_SpawnFullLoad</title>
<polygon fill="powderblue" stroke="black" points="546,-421 440,-421 440,-385 546,-385 546,-421"/>
<text text-anchor="middle" x="493" y="-397.9" font-family="Times,serif" font-size="14.00">SpawnFullLoad</text>
</g>
<!-- Constructor&#45;&gt;IO_SpawnFullLoad -->
<g id="edge42" class="edge"><title>Constructor&#45;&gt;IO_SpawnFullLoad</title>
<path fill="none" stroke="black" d="M275.079,-508.969C320.498,-486.883 397.457,-449.46 446.713,-425.508"/>
<polygon fill="black" stroke="black" points="448.414,-428.573 455.876,-421.052 445.352,-422.278 448.414,-428.573"/>
</g>
<!-- loaded_keys_&#45;&gt;CookieOp -->
<g id="edge13" class="edge"><title>loaded_keys_&#45;&gt;CookieOp</title>
<path fill="none" stroke="green" d="M63.5261,-125.728C45.5925,-149.921 18.8042,-194.76 31,-234 58.4991,-322.477 94.448,-345.58 125,-367 138.938,-376.772 155.721,-384.043 171.858,-389.39"/>
<polygon fill="green" stroke="green" points="171.203,-392.852 181.791,-392.476 173.28,-386.167 171.203,-392.852"/>
<text text-anchor="middle" x="84" y="-220.9" font-family="Times,serif" font-size="14.00">Check key loaded</text>
</g>
<!-- cookie_store_&#45;&gt;CookieOp -->
<g id="edge11" class="edge"><title>cookie_store_&#45;&gt;CookieOp</title>
<path fill="none" stroke="blue" d="M196.686,-133.3C188.552,-142.524 179.827,-153.318 173,-164 154.578,-192.824 160.515,-205.905 141,-234 134.546,-243.292 127.33,-241.547 123,-252 107.523,-289.366 102.355,-308.222 123,-343 134.12,-361.732 153.372,-374.99 172.693,-384.19"/>
<polygon fill="blue" stroke="blue" points="199.503,-135.404 203.62,-125.642 194.314,-130.706 199.503,-135.404"/>
<polygon fill="blue" stroke="blue" points="171.286,-387.395 181.845,-388.262 174.131,-381 171.286,-387.395"/>
<text text-anchor="middle" x="190" y="-220.9" font-family="Times,serif" font-size="14.00">if key loaded</text>
</g>
<!-- key_task&#45;&gt;CompleteLoad -->
<g id="edge5" class="edge"><title>key_task&#45;&gt;CompleteLoad</title>
<path fill="none" stroke="green" d="M228.019,-254.948C233.714,-248.78 238.865,-241.69 242,-234 245.03,-226.567 244.932,-218.132 243.492,-210.25"/>
<polygon fill="green" stroke="green" points="246.829,-209.171 240.977,-200.339 240.045,-210.893 246.829,-209.171"/>
</g>
<!-- IO_SpawnFullLoad&#45;&gt;IO_LoadKeyCookies -->
<!-- SpawnFullLoad -->
<g id="node20" class="node"><title>SpawnFullLoad</title>
<polygon fill="bisque" stroke="black" points="729,-297 623,-297 623,-261 729,-261 729,-297"/>
<text text-anchor="middle" x="676" y="-273.9" font-family="Times,serif" font-size="14.00">SpawnFullLoad</text>
</g>
<!-- IO_SpawnFullLoad&#45;&gt;SpawnFullLoad -->
<g id="edge44" class="edge"><title>IO_SpawnFullLoad&#45;&gt;SpawnFullLoad</title>
<path fill="none" stroke="black" stroke-dasharray="5,2" d="M519.61,-384.969C551.595,-363.296 605.375,-326.855 640.778,-302.866"/>
<polygon fill="black" stroke="black" points="643.043,-305.559 649.358,-297.052 639.116,-299.764 643.043,-305.559"/>
</g>
<!-- LoadKeyCookies -->
<g id="node21" class="node"><title>LoadKeyCookies</title>
<polygon fill="bisque" stroke="black" points="712,-126 594,-126 594,-90 712,-90 712,-126"/>
<text text-anchor="middle" x="653" y="-102.9" font-family="Times,serif" font-size="14.00">LoadKeyCookies</text>
</g>
<!-- IO_LoadKeyCookies&#45;&gt;LoadKeyCookies -->
<g id="edge34" class="edge"><title>IO_LoadKeyCookies&#45;&gt;LoadKeyCookies</title>
<path fill="none" stroke="black" stroke-dasharray="5,2" d="M507.252,-260.837C525.74,-237.624 559.377,-196.548 591,-164 601.411,-153.285 613.48,-142.127 624.189,-132.617"/>
<polygon fill="black" stroke="black" points="626.502,-135.243 631.703,-126.013 621.881,-129.985 626.502,-135.243"/>
</g>
<!-- ChainLoadKeyCookies -->
<g id="node22" class="node"><title>ChainLoadKeyCookies</title>
<polygon fill="bisque" stroke="black" points="752,-200 600,-200 600,-164 752,-164 752,-200"/>
<text text-anchor="middle" x="676" y="-176.9" font-family="Times,serif" font-size="14.00">ChainLoadKeyCookies</text>
</g>
<!-- SpawnFullLoad&#45;&gt;ChainLoadKeyCookies -->
<g id="edge46" class="edge"><title>SpawnFullLoad&#45;&gt;ChainLoadKeyCookies</title>
<path fill="none" stroke="black" stroke-dasharray="5,2" d="M676,-260.755C676,-246.529 676,-226.521 676,-210.232"/>
<polygon fill="black" stroke="black" points="679.5,-210.163 676,-200.163 672.5,-210.163 679.5,-210.163"/>
</g>
<!-- keys_to_load_ -->
<g id="node23" class="node"><title>keys_to_load_</title>
<ellipse fill="bisque" stroke="black" cx="798" cy="-34" rx="64.9942" ry="18"/>
<text text-anchor="middle" x="798" y="-28.9" font-family="Times,serif" font-size="14.00">keys_to_load_</text>
</g>
<!-- SpawnFullLoad&#45;&gt;keys_to_load_ -->
<g id="edge30" class="edge"><title>SpawnFullLoad&#45;&gt;keys_to_load_</title>
<path fill="none" stroke="orange" d="M712.469,-260.927C735.566,-247.451 763.842,-226.768 779,-200 803.441,-156.838 803.708,-97.2747 801.191,-62.4771"/>
<polygon fill="orange" stroke="orange" points="804.643,-61.7667 800.303,-52.1016 797.668,-62.3637 804.643,-61.7667"/>
</g>
<!-- LoadKeyCookies&#45;&gt;CompleteLoad -->
<g id="edge38" class="edge"><title>LoadKeyCookies&#45;&gt;CompleteLoad</title>
<path fill="none" stroke="black" stroke-dasharray="5,2" d="M593.697,-125.163C592.455,-125.451 591.222,-125.731 590,-126 487.226,-148.653 365.852,-165.664 294.384,-174.7"/>
<polygon fill="black" stroke="black" points="293.697,-171.258 284.21,-175.975 294.567,-178.204 293.697,-171.258"/>
</g>
<!-- LoadKeyCookies&#45;&gt;keys_to_load_ -->
<g id="edge24" class="edge"><title>LoadKeyCookies&#45;&gt;keys_to_load_</title>
<path fill="none" stroke="orange" d="M688.471,-89.8976C709.452,-79.1898 736.09,-65.5956 757.842,-54.4946"/>
<polygon fill="orange" stroke="orange" points="759.518,-57.5686 766.834,-49.9054 756.336,-51.3336 759.518,-57.5686"/>
</g>
<!-- keys_loaded_ -->
<g id="node24" class="node"><title>keys_loaded_</title>
<ellipse fill="bisque" stroke="black" cx="653" cy="-34" rx="61.8953" ry="18"/>
<text text-anchor="middle" x="653" y="-28.9" font-family="Times,serif" font-size="14.00">keys_loaded_</text>
</g>
<!-- LoadKeyCookies&#45;&gt;keys_loaded_ -->
<g id="edge28" class="edge"><title>LoadKeyCookies&#45;&gt;keys_loaded_</title>
<path fill="none" stroke="orange" d="M647.084,-89.7079C646.271,-81.3739 646.052,-71.3216 646.428,-62.0633"/>
<polygon fill="orange" stroke="orange" points="649.92,-62.2956 647.105,-52.0817 642.936,-61.822 649.92,-62.2956"/>
</g>
<!-- ChainLoadKeyCookies&#45;&gt;LoadKeyCookies -->
<g id="edge48" class="edge"><title>ChainLoadKeyCookies&#45;&gt;LoadKeyCookies</title>
<path fill="none" stroke="black" d="M670.315,-163.708C667.696,-155.284 664.533,-145.105 661.63,-135.765"/>
<polygon fill="black" stroke="black" points="664.93,-134.592 658.62,-126.082 658.246,-136.67 664.93,-134.592"/>
</g>
<!-- ChainLoadKeyCookies&#45;&gt;ChainLoadKeyCookies -->
<g id="edge50" class="edge"><title>ChainLoadKeyCookies&#45;&gt;ChainLoadKeyCookies</title>
<path fill="none" stroke="black" stroke-dasharray="5,2" d="M752.347,-188.023C762.928,-187.031 770,-185.023 770,-182 770,-180.11 767.237,-178.617 762.582,-177.521"/>
<polygon fill="black" stroke="black" points="762.758,-174.008 752.347,-175.977 761.713,-180.93 762.758,-174.008"/>
</g>
<!-- keys_to_load_&#45;&gt;ChainLoadKeyCookies -->
<g id="edge22" class="edge"><title>keys_to_load_&#45;&gt;ChainLoadKeyCookies</title>
<path fill="none" stroke="green" d="M783.299,-51.8339C761.927,-77.7601 722.145,-126.021 697.486,-155.935"/>
<polygon fill="green" stroke="green" points="694.62,-153.91 690.96,-163.852 700.021,-158.362 694.62,-153.91"/>
</g>
<!-- keys_loaded_&#45;&gt;LoadKeyCookies -->
<g id="edge26" class="edge"><title>keys_loaded_&#45;&gt;LoadKeyCookies</title>
<path fill="none" stroke="green" d="M658.895,-52.0817C659.718,-60.3865 659.947,-70.4309 659.581,-79.7024"/>
<polygon fill="green" stroke="green" points="656.087,-79.4976 658.916,-89.7079 663.072,-79.9622 656.087,-79.4976"/>
</g>
<!-- IO_Thread -->
<g id="node42" class="node"><title>IO_Thread</title>
<polygon fill="powderblue" stroke="black" points="911,-545 833,-545 833,-509 911,-509 911,-545"/>
<text text-anchor="middle" x="872" y="-521.9" font-family="Times,serif" font-size="14.00">IO_Thread</text>
</g>
<!-- DB_Thread -->
<g id="node43" class="node"><title>DB_Thread</title>
<polygon fill="bisque" stroke="black" points="913,-421 831,-421 831,-385 913,-385 913,-421"/>
<text text-anchor="middle" x="872" y="-397.9" font-family="Times,serif" font-size="14.00">DB_Thread</text>
</g>
<!-- IO_Thread&#45;&gt;DB_Thread -->
<g id="edge53" class="edge"><title>IO_Thread&#45;&gt;DB_Thread</title>
<path fill="none" stroke="black" stroke-dasharray="5,2" d="M872,-508.969C872,-488.582 872,-455.127 872,-431.261"/>
<polygon fill="black" stroke="black" points="875.5,-431.052 872,-421.052 868.5,-431.052 875.5,-431.052"/>
<text text-anchor="middle" x="898" y="-477.9" font-family="Times,serif" font-size="14.00">PostTask</text>
</g>
<!-- A -->
<g id="node45" class="node"><title>A</title>
<polygon fill="none" stroke="black" points="796,-545 742,-545 742,-509 796,-509 796,-545"/>
<text text-anchor="middle" x="769" y="-521.9" font-family="Times,serif" font-size="14.00">A</text>
</g>
<!-- B -->
<g id="node47" class="node"><title>B</title>
<polygon fill="none" stroke="black" points="799,-421 745,-421 745,-385 799,-385 799,-421"/>
<text text-anchor="middle" x="772" y="-397.9" font-family="Times,serif" font-size="14.00">B</text>
</g>
<!-- A&#45;&gt;B -->
<g id="edge55" class="edge"><title>A&#45;&gt;B</title>
<path fill="none" stroke="black" d="M769.436,-508.969C769.929,-488.582 770.739,-455.127 771.316,-431.261"/>
<polygon fill="black" stroke="black" points="774.82,-431.134 771.563,-421.052 767.822,-430.965 774.82,-431.134"/>
<text text-anchor="middle" x="811" y="-477.9" font-family="Times,serif" font-size="14.00">Function Call</text>
</g>
<!-- Function -->
<g id="node48" class="node"><title>Function</title>
<polygon fill="none" stroke="black" points="700,-545 632,-545 632,-509 700,-509 700,-545"/>
<text text-anchor="middle" x="666" y="-521.9" font-family="Times,serif" font-size="14.00">Function</text>
</g>
<!-- Data_Structure -->
<g id="node49" class="node"><title>Data_Structure</title>
<ellipse fill="none" stroke="black" cx="662" cy="-403" rx="64.9942" ry="18"/>
<text text-anchor="middle" x="662" y="-397.9" font-family="Times,serif" font-size="14.00">Data_Structure</text>
</g>
<!-- Function&#45;&gt;Data_Structure -->
<g id="edge57" class="edge"><title>Function&#45;&gt;Data_Structure</title>
<path fill="none" stroke="orange" d="M631.892,-512.554C623.199,-507.131 614.929,-500.029 610,-491 598.021,-469.058 614.972,-444.617 632.642,-427.071"/>
<polygon fill="orange" stroke="orange" points="635.279,-429.396 640.176,-420.001 630.489,-424.292 635.279,-429.396"/>
<text text-anchor="middle" x="627" y="-477.9" font-family="Times,serif" font-size="14.00">Write</text>
</g>
<!-- Function&#45;&gt;Data_Structure -->
<g id="edge61" class="edge"><title>Function&#45;&gt;Data_Structure</title>
<path fill="none" stroke="blue" d="M663.434,-498.482C663.264,-495.953 663.115,-493.431 663,-491 662.056,-471.031 661.815,-448.486 661.806,-431.215"/>
<polygon fill="blue" stroke="blue" points="659.964,-499 664.219,-508.702 666.943,-498.464 659.964,-499"/>
<polygon fill="blue" stroke="blue" points="665.306,-431.22 661.826,-421.213 658.306,-431.206 665.306,-431.22"/>
<text text-anchor="middle" x="676.5" y="-477.9" font-family="Times,serif" font-size="14.00">R/W</text>
</g>
<!-- Data_Structure&#45;&gt;Function -->
<g id="edge59" class="edge"><title>Data_Structure&#45;&gt;Function</title>
<path fill="none" stroke="green" d="M672.509,-420.927C680.163,-435.076 689.883,-455.598 694,-475 695.476,-481.956 696.308,-484.274 694,-491 692.861,-494.321 691.276,-497.572 689.434,-500.677"/>
<polygon fill="green" stroke="green" points="686.506,-498.757 683.72,-508.979 692.272,-502.726 686.506,-498.757"/>
<text text-anchor="middle" x="711" y="-477.9" font-family="Times,serif" font-size="14.00">Read</text>
</g>
</g>
</svg>
