<?xml version="1.0" encoding="UTF-8" standalone="no"?>
<!DOCTYPE svg PUBLIC "-//W3C//DTD SVG 1.1//EN"
 "http://www.w3.org/Graphics/SVG/1.1/DTD/svg11.dtd">
<!-- Generated by graphviz version 2.26.3 (20100126.1600)
 -->
<!-- Title: G Pages: 1 -->
<svg width="1440pt" height="372pt"
 viewBox="0.00 0.00 1440.00 371.59" xmlns="http://www.w3.org/2000/svg" xmlns:xlink="http://www.w3.org/1999/xlink">
<g id="graph1" class="graph" transform="scale(0.544856 0.544856) rotate(0) translate(4 678)">
<title>G</title>
<polygon fill="white" stroke="white" points="-4,5 -4,-678 2639.9,-678 2639.9,5 -4,5"/>
<!-- SetCookies -->
<g id="node1" class="node"><title>SetCookies</title>
<ellipse fill="green" stroke="black" cx="462.899" cy="-647" rx="67.1751" ry="26.8701"/>
<text text-anchor="middle" x="462.899" y="-649.4" font-family="Times,serif" font-size="14.00">CookieStore::</text>
<text text-anchor="middle" x="462.899" y="-634.4" font-family="Times,serif" font-size="14.00">SetCookies</text>
</g>
<!-- SetCookiesWithOptions -->
<g id="node89" class="node"><title>SetCookiesWithOptions</title>
<ellipse fill="green" stroke="black" cx="462.899" cy="-557" rx="109.81" ry="26.8701"/>
<text text-anchor="middle" x="462.899" y="-559.4" font-family="Times,serif" font-size="14.00">CookieStore::</text>
<text text-anchor="middle" x="462.899" y="-544.4" font-family="Times,serif" font-size="14.00">SetCookiesWithOptions</text>
</g>
<!-- SetCookies&#45;&gt;SetCookiesWithOptions -->
<g id="edge104" class="edge"><title>SetCookies&#45;&gt;SetCookiesWithOptions</title>
<path fill="none" stroke="black" d="M462.899,-619.997C462.899,-611.972 462.899,-603.033 462.899,-594.469"/>
<polygon fill="black" stroke="black" points="466.4,-594.295 462.899,-584.295 459.4,-594.295 466.4,-594.295"/>
</g>
<!-- GetCookieMonster -->
<g id="node2" class="node"><title>GetCookieMonster</title>
<ellipse fill="green" stroke="black" cx="696.899" cy="-647" rx="83.1926" ry="18"/>
<text text-anchor="middle" x="696.899" y="-641.9" font-family="Times,serif" font-size="14.00">GetCookieMonster</text>
</g>
<!-- NotCookieMonster -->
<g id="node3" class="node"><title>NotCookieMonster</title>
<ellipse fill="none" stroke="black" cx="1012.9" cy="-647" rx="84.1457" ry="26.8701"/>
<text text-anchor="middle" x="1012.9" y="-649.4" font-family="Times,serif" font-size="14.00">~CookieMonster</text>
<text text-anchor="middle" x="1012.9" y="-634.4" font-family="Times,serif" font-size="14.00">(from refcnt base)</text>
</g>
<!-- ParseCookieTime -->
<g id="node4" class="node"><title>ParseCookieTime</title>
<ellipse fill="blue" stroke="black" cx="1456.9" cy="-647" rx="78.7943" ry="18"/>
<text text-anchor="middle" x="1456.9" y="-641.9" font-family="Times,serif" font-size="14.00">ParseCookieTime</text>
</g>
<!-- EnableFileScheme -->
<g id="node5" class="node"><title>EnableFileScheme</title>
<ellipse fill="blue" stroke="black" cx="2160.9" cy="-647" rx="81.8927" ry="18"/>
<text text-anchor="middle" x="2160.9" y="-641.9" font-family="Times,serif" font-size="14.00">EnableFileScheme</text>
</g>
<!-- CanonicalCookie_PC -->
<g id="node6" class="node"><title>CanonicalCookie_PC</title>
<ellipse fill="yellow" stroke="black" cx="330.899" cy="-306" rx="92.9418" ry="18"/>
<text text-anchor="middle" x="330.899" y="-300.9" font-family="Times,serif" font-size="14.00">CanonicalCookie_PC</text>
</g>
<!-- GetCookieDomainWithString -->
<g id="node11" class="node"><title>GetCookieDomainWithString</title>
<ellipse fill="lightblue" stroke="black" cx="330.899" cy="-234" rx="122.839" ry="18"/>
<text text-anchor="middle" x="330.899" y="-228.9" font-family="Times,serif" font-size="14.00">GetCookieDomainWithString</text>
</g>
<!-- CanonicalCookie_PC&#45;&gt;GetCookieDomainWithString -->
<g id="edge3" class="edge"><title>CanonicalCookie_PC&#45;&gt;GetCookieDomainWithString</title>
<path fill="none" stroke="black" d="M330.899,-287.831C330.899,-280.131 330.899,-270.974 330.899,-262.417"/>
<polygon fill="black" stroke="black" points="334.4,-262.413 330.899,-252.413 327.4,-262.413 334.4,-262.413"/>
</g>
<!-- CanonicalCookie_10 -->
<g id="node7" class="node"><title>CanonicalCookie_10</title>
<ellipse fill="yellow" stroke="black" cx="129.899" cy="-306" rx="89.8429" ry="18"/>
<text text-anchor="middle" x="129.899" y="-300.9" font-family="Times,serif" font-size="14.00">CanonicalCookie_10</text>
</g>
<!-- CanonicalCookie_Create -->
<g id="node8" class="node"><title>CanonicalCookie_Create</title>
<ellipse fill="yellow" stroke="black" cx="129.899" cy="-387" rx="87.1802" ry="26.8701"/>
<text text-anchor="middle" x="129.899" y="-389.4" font-family="Times,serif" font-size="14.00">CanonicalCookie::</text>
<text text-anchor="middle" x="129.899" y="-374.4" font-family="Times,serif" font-size="14.00">Create</text>
</g>
<!-- CanonicalCookie_Create&#45;&gt;CanonicalCookie_10 -->
<g id="edge6" class="edge"><title>CanonicalCookie_Create&#45;&gt;CanonicalCookie_10</title>
<path fill="none" stroke="black" d="M129.899,-359.577C129.899,-351.535 129.899,-342.723 129.899,-334.609"/>
<polygon fill="black" stroke="black" points="133.4,-334.469 129.899,-324.469 126.4,-334.469 133.4,-334.469"/>
</g>
<!-- CanonicalCookie_Create&#45;&gt;GetCookieDomainWithString -->
<g id="edge4" class="edge"><title>CanonicalCookie_Create&#45;&gt;GetCookieDomainWithString</title>
<path fill="none" stroke="black" d="M81.0069,-364.523C45.5216,-345.153 7.51308,-315.972 30.8995,-288 53.3905,-261.099 132.984,-247.579 204.535,-240.795"/>
<polygon fill="black" stroke="black" points="204.93,-244.273 214.571,-239.881 204.295,-237.302 204.93,-244.273"/>
</g>
<!-- GetEffectiveDomain -->
<g id="node96" class="node"><title>GetEffectiveDomain</title>
<ellipse fill="lightblue" stroke="black" cx="572.899" cy="-90" rx="89.0421" ry="18"/>
<text text-anchor="middle" x="572.899" y="-84.9" font-family="Times,serif" font-size="14.00">GetEffectiveDomain</text>
</g>
<!-- GetCookieDomainWithString&#45;&gt;GetEffectiveDomain -->
<g id="edge121" class="edge"><title>GetCookieDomainWithString&#45;&gt;GetEffectiveDomain</title>
<path fill="none" stroke="black" d="M360.573,-216.343C404.563,-190.167 487.055,-141.081 535.244,-112.407"/>
<polygon fill="black" stroke="black" points="537.31,-115.25 544.114,-107.129 533.73,-109.235 537.31,-115.25"/>
</g>
<!-- DomainIsHostOnly -->
<g id="node106" class="node"><title>DomainIsHostOnly</title>
<ellipse fill="blue" stroke="black" cx="330.899" cy="-18" rx="83.1926" ry="18"/>
<text text-anchor="middle" x="330.899" y="-12.9" font-family="Times,serif" font-size="14.00">DomainIsHostOnly</text>
</g>
<!-- GetCookieDomainWithString&#45;&gt;DomainIsHostOnly -->
<g id="edge129" class="edge"><title>GetCookieDomainWithString&#45;&gt;DomainIsHostOnly</title>
<path fill="none" stroke="black" d="M330.899,-215.955C330.899,-178.394 330.899,-91.5541 330.899,-46.4103"/>
<polygon fill="black" stroke="black" points="334.4,-46.145 330.899,-36.1451 327.4,-46.1451 334.4,-46.145"/>
</g>
<!-- CookieMonster -->
<g id="node13" class="node"><title>CookieMonster</title>
<ellipse fill="green" stroke="black" cx="2395.9" cy="-647" rx="69.0435" ry="18"/>
<text text-anchor="middle" x="2395.9" y="-641.9" font-family="Times,serif" font-size="14.00">CookieMonster</text>
</g>
<!-- SetDefaultCookieableSchemes -->
<g id="node15" class="node"><title>SetDefaultCookieableSchemes</title>
<ellipse fill="grey" stroke="black" cx="2395.9" cy="-557" rx="126.089" ry="18"/>
<text text-anchor="middle" x="2395.9" y="-551.9" font-family="Times,serif" font-size="14.00">SetDefaultCookieableSchemes</text>
</g>
<!-- CookieMonster&#45;&gt;SetDefaultCookieableSchemes -->
<g id="edge8" class="edge"><title>CookieMonster&#45;&gt;SetDefaultCookieableSchemes</title>
<path fill="none" stroke="black" d="M2395.9,-628.787C2395.9,-616.344 2395.9,-599.605 2395.9,-585.421"/>
<polygon fill="black" stroke="black" points="2399.4,-585.186 2395.9,-575.186 2392.4,-585.186 2399.4,-585.186"/>
</g>
<!-- SetCookieableSchemes -->
<g id="node26" class="node"><title>SetCookieableSchemes</title>
<ellipse fill="green" stroke="red" cx="2395.9" cy="-472" rx="98.7912" ry="18"/>
<ellipse fill="none" stroke="red" cx="2395.9" cy="-472" rx="102.791" ry="22"/>
<text text-anchor="middle" x="2395.9" y="-466.9" font-family="Times,serif" font-size="14.00">SetCookieableSchemes</text>
</g>
<!-- SetDefaultCookieableSchemes&#45;&gt;SetCookieableSchemes -->
<g id="edge18" class="edge"><title>SetDefaultCookieableSchemes&#45;&gt;SetCookieableSchemes</title>
<path fill="none" stroke="black" d="M2395.9,-538.974C2395.9,-528.974 2395.9,-516.233 2395.9,-504.554"/>
<polygon fill="black" stroke="black" points="2399.4,-504.236 2395.9,-494.236 2392.4,-504.236 2399.4,-504.236"/>
</g>
<!-- InitStore -->
<g id="node16" class="node"><title>InitStore</title>
<ellipse fill="grey" stroke="black" cx="1438.9" cy="-234" rx="42.8962" ry="18"/>
<text text-anchor="middle" x="1438.9" y="-228.9" font-family="Times,serif" font-size="14.00">InitStore</text>
</g>
<!-- InternalInsertCookie -->
<g id="node19" class="node"><title>InternalInsertCookie</title>
<ellipse fill="grey" stroke="black" cx="1146.9" cy="-162" rx="87.0923" ry="18"/>
<text text-anchor="middle" x="1146.9" y="-156.9" font-family="Times,serif" font-size="14.00">InternalInsertCookie</text>
</g>
<!-- InitStore&#45;&gt;InternalInsertCookie -->
<g id="edge11" class="edge"><title>InitStore&#45;&gt;InternalInsertCookie</title>
<path fill="none" stroke="black" d="M1406.34,-222.107C1399.94,-219.944 1393.24,-217.804 1386.9,-216 1331.68,-200.283 1268.27,-186.181 1220.5,-176.333"/>
<polygon fill="black" stroke="black" points="1221.05,-172.873 1210.55,-174.297 1219.65,-179.731 1221.05,-172.873"/>
</g>
<!-- EnsureCookiesMapIsValid -->
<g id="node20" class="node"><title>EnsureCookiesMapIsValid</title>
<ellipse fill="grey" stroke="black" cx="1460.9" cy="-162" rx="111.14" ry="18"/>
<text text-anchor="middle" x="1460.9" y="-156.9" font-family="Times,serif" font-size="14.00">EnsureCookiesMapIsValid</text>
</g>
<!-- InitStore&#45;&gt;EnsureCookiesMapIsValid -->
<g id="edge12" class="edge"><title>InitStore&#45;&gt;EnsureCookiesMapIsValid</title>
<path fill="none" stroke="black" d="M1444.45,-215.831C1446.83,-208.046 1449.66,-198.773 1452.3,-190.135"/>
<polygon fill="black" stroke="black" points="1455.7,-191 1455.27,-180.413 1449,-188.954 1455.7,-191"/>
</g>
<!-- GetKey -->
<g id="node94" class="node"><title>GetKey</title>
<ellipse fill="grey" stroke="black" cx="1291.9" cy="-162" rx="39.7989" ry="18"/>
<text text-anchor="middle" x="1291.9" y="-156.9" font-family="Times,serif" font-size="14.00">GetKey</text>
</g>
<!-- InitStore&#45;&gt;GetKey -->
<g id="edge107" class="edge"><title>InitStore&#45;&gt;GetKey</title>
<path fill="none" stroke="black" d="M1410.9,-220.288C1387.46,-208.805 1353.83,-192.334 1328.3,-179.829"/>
<polygon fill="black" stroke="black" points="1329.81,-176.673 1319.29,-175.417 1326.73,-182.959 1329.81,-176.673"/>
</g>
<!-- TrimDuplicateCookiesForHost -->
<g id="node22" class="node"><title>TrimDuplicateCookiesForHost</title>
<ellipse fill="grey" stroke="black" cx="1263.9" cy="-90" rx="128.039" ry="18"/>
<text text-anchor="middle" x="1263.9" y="-84.9" font-family="Times,serif" font-size="14.00">TrimDuplicateCookiesForHost</text>
</g>
<!-- EnsureCookiesMapIsValid&#45;&gt;TrimDuplicateCookiesForHost -->
<g id="edge14" class="edge"><title>EnsureCookiesMapIsValid&#45;&gt;TrimDuplicateCookiesForHost</title>
<path fill="none" stroke="black" d="M1415.7,-145.482C1387.11,-135.03 1349.93,-121.442 1319.52,-110.33"/>
<polygon fill="black" stroke="black" points="1320.5,-106.961 1309.91,-106.816 1318.1,-113.536 1320.5,-106.961"/>
</g>
<!-- InternalDeleteCookie -->
<g id="node24" class="node"><title>InternalDeleteCookie</title>
<ellipse fill="grey" stroke="black" cx="1656.9" cy="-18" rx="91.1411" ry="18"/>
<text text-anchor="middle" x="1656.9" y="-12.9" font-family="Times,serif" font-size="14.00">InternalDeleteCookie</text>
</g>
<!-- TrimDuplicateCookiesForHost&#45;&gt;InternalDeleteCookie -->
<g id="edge16" class="edge"><title>TrimDuplicateCookiesForHost&#45;&gt;InternalDeleteCookie</title>
<path fill="none" stroke="black" d="M1342.01,-75.689C1411.14,-63.0245 1511.43,-44.6505 1580.15,-32.0616"/>
<polygon fill="black" stroke="black" points="1580.84,-35.4924 1590.05,-30.2476 1579.58,-28.607 1580.84,-35.4924"/>
</g>
<!-- SetCookieWithCreationTimeAndOptions -->
<g id="node27" class="node"><title>SetCookieWithCreationTimeAndOptions</title>
<ellipse fill="grey" stroke="black" cx="625.899" cy="-387" rx="167.035" ry="18"/>
<text text-anchor="middle" x="625.899" y="-381.9" font-family="Times,serif" font-size="14.00">SetCookieWithCreationTimeAndOptions</text>
</g>
<!-- SetCookieWithCreationTimeAndOptions&#45;&gt;CanonicalCookie_10 -->
<g id="edge21" class="edge"><title>SetCookieWithCreationTimeAndOptions&#45;&gt;CanonicalCookie_10</title>
<path fill="none" stroke="black" d="M529.129,-372.265C448.682,-359.867 331.234,-341.421 228.899,-324 221.535,-322.746 213.869,-321.409 206.207,-320.052"/>
<polygon fill="black" stroke="black" points="206.622,-316.571 196.163,-318.26 205.393,-323.462 206.622,-316.571"/>
</g>
<!-- InitIfNecessary -->
<g id="node30" class="node"><title>InitIfNecessary</title>
<ellipse fill="grey" stroke="black" cx="1428.9" cy="-306" rx="67.0933" ry="18"/>
<text text-anchor="middle" x="1428.9" y="-300.9" font-family="Times,serif" font-size="14.00">InitIfNecessary</text>
</g>
<!-- SetCookieWithCreationTimeAndOptions&#45;&gt;InitIfNecessary -->
<g id="edge22" class="edge"><title>SetCookieWithCreationTimeAndOptions&#45;&gt;InitIfNecessary</title>
<path fill="none" stroke="black" d="M731.333,-373.001C767.319,-368.489 807.829,-363.703 844.899,-360 1053.36,-339.177 1106.82,-348.357 1314.9,-324 1330.33,-322.194 1346.86,-319.832 1362.42,-317.415"/>
<polygon fill="black" stroke="black" points="1363.16,-320.843 1372.49,-315.824 1362.06,-313.928 1363.16,-320.843"/>
</g>
<!-- SetCanonicalCookie -->
<g id="node31" class="node"><title>SetCanonicalCookie</title>
<ellipse fill="grey" stroke="black" cx="951.899" cy="-234" rx="87.8928" ry="18"/>
<text text-anchor="middle" x="951.899" y="-228.9" font-family="Times,serif" font-size="14.00">SetCanonicalCookie</text>
</g>
<!-- SetCookieWithCreationTimeAndOptions&#45;&gt;SetCanonicalCookie -->
<g id="edge23" class="edge"><title>SetCookieWithCreationTimeAndOptions&#45;&gt;SetCanonicalCookie</title>
<path fill="none" stroke="black" d="M632.689,-368.833C642.139,-346.176 661.48,-307.994 690.899,-288 719.053,-268.866 801.055,-253.889 865.711,-244.611"/>
<polygon fill="black" stroke="black" points="866.514,-248.032 875.928,-243.171 865.537,-241.101 866.514,-248.032"/>
</g>
<!-- HasCookieableScheme -->
<g id="node32" class="node"><title>HasCookieableScheme</title>
<ellipse fill="grey" stroke="black" cx="797.899" cy="-306" rx="98.1413" ry="18"/>
<text text-anchor="middle" x="797.899" y="-300.9" font-family="Times,serif" font-size="14.00">HasCookieableScheme</text>
</g>
<!-- SetCookieWithCreationTimeAndOptions&#45;&gt;HasCookieableScheme -->
<g id="edge24" class="edge"><title>SetCookieWithCreationTimeAndOptions&#45;&gt;HasCookieableScheme</title>
<path fill="none" stroke="black" d="M663.221,-369.424C689.585,-357.009 725.049,-340.307 752.968,-327.16"/>
<polygon fill="black" stroke="black" points="754.566,-330.276 762.122,-322.849 751.584,-323.943 754.566,-330.276"/>
</g>
<!-- GetCookieDomain -->
<g id="node100" class="node"><title>GetCookieDomain</title>
<ellipse fill="lightblue" stroke="black" cx="561.899" cy="-306" rx="81.8927" ry="18"/>
<text text-anchor="middle" x="561.899" y="-300.9" font-family="Times,serif" font-size="14.00">GetCookieDomain</text>
</g>
<!-- SetCookieWithCreationTimeAndOptions&#45;&gt;GetCookieDomain -->
<g id="edge123" class="edge"><title>SetCookieWithCreationTimeAndOptions&#45;&gt;GetCookieDomain</title>
<path fill="none" stroke="black" d="M611.696,-369.023C603.079,-358.117 591.937,-344.016 582.378,-331.918"/>
<polygon fill="black" stroke="black" points="585.009,-329.603 576.063,-323.926 579.517,-333.943 585.009,-329.603"/>
</g>
<!-- InitIfNecessary&#45;&gt;InitStore -->
<g id="edge90" class="edge"><title>InitIfNecessary&#45;&gt;InitStore</title>
<path fill="none" stroke="black" d="M1431.42,-287.831C1432.49,-280.131 1433.76,-270.974 1434.95,-262.417"/>
<polygon fill="black" stroke="black" points="1438.43,-262.8 1436.34,-252.413 1431.5,-261.837 1438.43,-262.8"/>
</g>
<!-- SetCanonicalCookie&#45;&gt;InternalInsertCookie -->
<g id="edge38" class="edge"><title>SetCanonicalCookie&#45;&gt;InternalInsertCookie</title>
<path fill="none" stroke="black" d="M994.693,-218.199C1024.16,-207.32 1063.48,-192.802 1094.77,-181.247"/>
<polygon fill="black" stroke="black" points="1096.04,-184.511 1104.21,-177.764 1093.61,-177.944 1096.04,-184.511"/>
</g>
<!-- DeleteAnyEquivalentCookie -->
<g id="node42" class="node"><title>DeleteAnyEquivalentCookie</title>
<ellipse fill="grey" stroke="black" cx="799.899" cy="-90" rx="120.239" ry="18"/>
<text text-anchor="middle" x="799.899" y="-84.9" font-family="Times,serif" font-size="14.00">DeleteAnyEquivalentCookie</text>
</g>
<!-- SetCanonicalCookie&#45;&gt;DeleteAnyEquivalentCookie -->
<g id="edge39" class="edge"><title>SetCanonicalCookie&#45;&gt;DeleteAnyEquivalentCookie</title>
<path fill="none" stroke="black" d="M932.376,-216.38C920.823,-205.892 905.943,-192.276 892.899,-180 869.993,-158.442 844.327,-133.546 825.77,-115.411"/>
<polygon fill="black" stroke="black" points="827.876,-112.575 818.281,-108.082 822.98,-117.578 827.876,-112.575"/>
</g>
<!-- GarbageCollect -->
<g id="node43" class="node"><title>GarbageCollect</title>
<ellipse fill="grey" stroke="black" cx="971.899" cy="-162" rx="70.1938" ry="18"/>
<text text-anchor="middle" x="971.899" y="-156.9" font-family="Times,serif" font-size="14.00">GarbageCollect</text>
</g>
<!-- SetCanonicalCookie&#45;&gt;GarbageCollect -->
<g id="edge40" class="edge"><title>SetCanonicalCookie&#45;&gt;GarbageCollect</title>
<path fill="none" stroke="black" d="M956.946,-215.831C959.109,-208.046 961.685,-198.773 964.084,-190.135"/>
<polygon fill="black" stroke="black" points="967.48,-190.985 966.785,-180.413 960.736,-189.112 967.48,-190.985"/>
</g>
<!-- SetCanonicalCookie&#45;&gt;GetKey -->
<g id="edge108" class="edge"><title>SetCanonicalCookie&#45;&gt;GetKey</title>
<path fill="none" stroke="black" d="M1018.79,-222.2C1097.91,-208.148 1221.62,-185.837 1242.9,-180 1245.91,-179.175 1248.99,-178.247 1252.07,-177.259"/>
<polygon fill="black" stroke="black" points="1253.49,-180.473 1261.84,-173.947 1251.24,-173.844 1253.49,-180.473"/>
</g>
<!-- GetCookiesWithOptions -->
<g id="node33" class="node"><title>GetCookiesWithOptions</title>
<ellipse fill="green" stroke="red" cx="843.899" cy="-472" rx="102.86" ry="18"/>
<ellipse fill="none" stroke="red" cx="843.899" cy="-472" rx="106.842" ry="22"/>
<text text-anchor="middle" x="843.899" y="-466.9" font-family="Times,serif" font-size="14.00">GetCookiesWithOptions</text>
</g>
<!-- GetCookiesWithOptions&#45;&gt;InitIfNecessary -->
<g id="edge27" class="edge"><title>GetCookiesWithOptions&#45;&gt;InitIfNecessary</title>
<path fill="none" stroke="black" d="M921.157,-456.664C934.07,-454.297 947.347,-451.984 959.899,-450 1085.57,-430.137 1123.42,-454.897 1243.9,-414 1274.85,-403.493 1350.52,-356.495 1394.91,-328.073"/>
<polygon fill="black" stroke="black" points="1396.82,-331.002 1403.34,-322.652 1393.04,-325.113 1396.82,-331.002"/>
</g>
<!-- GetCookiesWithOptions&#45;&gt;HasCookieableScheme -->
<g id="edge28" class="edge"><title>GetCookiesWithOptions&#45;&gt;HasCookieableScheme</title>
<path fill="none" stroke="black" d="M837.791,-449.956C829.499,-420.034 814.68,-366.555 805.625,-333.878"/>
<polygon fill="black" stroke="black" points="808.946,-332.758 802.903,-324.056 802.201,-334.628 808.946,-332.758"/>
</g>
<!-- FindCookiesForHostAndDomain -->
<g id="node36" class="node"><title>FindCookiesForHostAndDomain</title>
<ellipse fill="grey" stroke="black" cx="1098.9" cy="-387" rx="135.838" ry="18"/>
<text text-anchor="middle" x="1098.9" y="-381.9" font-family="Times,serif" font-size="14.00">FindCookiesForHostAndDomain</text>
</g>
<!-- GetCookiesWithOptions&#45;&gt;FindCookiesForHostAndDomain -->
<g id="edge29" class="edge"><title>GetCookiesWithOptions&#45;&gt;FindCookiesForHostAndDomain</title>
<path fill="none" stroke="black" d="M900.176,-453.241C941.269,-439.543 996.896,-421.001 1038.84,-407.018"/>
<polygon fill="black" stroke="black" points="1040.01,-410.321 1048.39,-403.838 1037.79,-403.68 1040.01,-410.321"/>
</g>
<!-- FindCookiesForKey -->
<g id="node78" class="node"><title>FindCookiesForKey</title>
<ellipse fill="grey" stroke="black" cx="1217.9" cy="-306" rx="87.8928" ry="18"/>
<text text-anchor="middle" x="1217.9" y="-300.9" font-family="Times,serif" font-size="14.00">FindCookiesForKey</text>
</g>
<!-- FindCookiesForHostAndDomain&#45;&gt;FindCookiesForKey -->
<g id="edge88" class="edge"><title>FindCookiesForHostAndDomain&#45;&gt;FindCookiesForKey</title>
<path fill="none" stroke="black" d="M1125.01,-369.224C1142.34,-357.432 1165.25,-341.839 1183.98,-329.09"/>
<polygon fill="black" stroke="black" points="1185.96,-331.976 1192.25,-323.456 1182.02,-326.189 1185.96,-331.976"/>
</g>
<!-- FindCookiesForHostAndDomain&#45;&gt;GetKey -->
<g id="edge109" class="edge"><title>FindCookiesForHostAndDomain&#45;&gt;GetKey</title>
<path fill="none" stroke="black" d="M1090.47,-368.931C1075.99,-334.931 1051.23,-260.833 1086.9,-216 1131.2,-160.315 1174.7,-200.308 1242.9,-180 1245.84,-179.123 1248.87,-178.163 1251.9,-177.156"/>
<polygon fill="black" stroke="black" points="1253.21,-180.407 1261.52,-173.831 1250.92,-173.792 1253.21,-180.407"/>
</g>
<!-- FindCookiesForHostAndDomain&#45;&gt;GetEffectiveDomain -->
<g id="edge117" class="edge"><title>FindCookiesForHostAndDomain&#45;&gt;GetEffectiveDomain</title>
<path fill="none" stroke="black" d="M1066.83,-369.473C1020.1,-343.88 930.597,-294.68 854.899,-252 767.492,-202.718 665.539,-143.787 611.36,-112.355"/>
<polygon fill="black" stroke="black" points="612.854,-109.176 602.448,-107.183 609.34,-115.23 612.854,-109.176"/>
</g>
<!-- SetCookieWithDetails -->
<g id="node37" class="node"><title>SetCookieWithDetails</title>
<ellipse fill="green" stroke="red" cx="129.899" cy="-472" rx="94.8916" ry="18"/>
<ellipse fill="none" stroke="red" cx="129.899" cy="-472" rx="98.8916" ry="22"/>
<text text-anchor="middle" x="129.899" y="-466.9" font-family="Times,serif" font-size="14.00">SetCookieWithDetails</text>
</g>
<!-- SetCookieWithDetails&#45;&gt;CanonicalCookie_Create -->
<g id="edge32" class="edge"><title>SetCookieWithDetails&#45;&gt;CanonicalCookie_Create</title>
<path fill="none" stroke="black" d="M129.899,-449.667C129.899,-441.819 129.899,-432.776 129.899,-424.045"/>
<polygon fill="black" stroke="black" points="133.4,-424.03 129.899,-414.03 126.4,-424.03 133.4,-424.03"/>
</g>
<!-- SetCookieWithDetails&#45;&gt;GetCookieDomainWithString -->
<g id="edge125" class="edge"><title>SetCookieWithDetails&#45;&gt;GetCookieDomainWithString</title>
<path fill="none" stroke="black" d="M80.4884,-452.727C63.1391,-443.544 45.1802,-430.818 33.8995,-414 2.51321,-367.207 -16.3745,-331.115 19.8995,-288 43.5767,-259.857 127.92,-246.381 202.805,-239.928"/>
<polygon fill="black" stroke="black" points="203.15,-243.412 212.828,-239.101 202.574,-236.435 203.15,-243.412"/>
</g>
<!-- SetCookieWithDetails&#45;&gt;InitIfNecessary -->
<g id="edge33" class="edge"><title>SetCookieWithDetails&#45;&gt;InitIfNecessary</title>
<path fill="none" stroke="black" d="M199.668,-456.331C212.339,-453.902 225.476,-451.654 237.899,-450 486.88,-416.854 555.858,-464.529 801.899,-414 872.126,-399.578 883.941,-375.672 953.899,-360 1111.24,-324.754 1154.98,-344.582 1314.9,-324 1330.22,-322.028 1346.66,-319.611 1362.15,-317.195"/>
<polygon fill="black" stroke="black" points="1362.83,-320.63 1372.16,-315.613 1361.74,-313.716 1362.83,-320.63"/>
</g>
<!-- SetCookieWithDetails&#45;&gt;SetCanonicalCookie -->
<g id="edge34" class="edge"><title>SetCookieWithDetails&#45;&gt;SetCanonicalCookie</title>
<path fill="none" stroke="black" d="M180.177,-452.973C242.449,-428.195 350.396,-381.219 432.899,-324 452.016,-310.742 449.803,-297.806 470.899,-288 536.984,-257.284 734.316,-243.402 854.715,-237.642"/>
<polygon fill="black" stroke="black" points="855.216,-241.123 865.041,-237.159 854.889,-234.131 855.216,-241.123"/>
</g>
<!-- SetCookieWithDetails&#45;&gt;HasCookieableScheme -->
<g id="edge35" class="edge"><title>SetCookieWithDetails&#45;&gt;HasCookieableScheme</title>
<path fill="none" stroke="black" d="M202.644,-457.077C283.969,-440.349 404.684,-415.366 406.899,-414 433.017,-397.902 423.369,-375.407 449.899,-360 461.081,-353.507 609.484,-332.01 708.846,-318.177"/>
<polygon fill="black" stroke="black" points="709.479,-321.623 718.902,-316.78 708.515,-314.69 709.479,-321.623"/>
</g>
<!-- DeleteAnyEquivalentCookie&#45;&gt;InternalDeleteCookie -->
<g id="edge42" class="edge"><title>DeleteAnyEquivalentCookie&#45;&gt;InternalDeleteCookie</title>
<path fill="none" stroke="black" d="M885.153,-77.3121C899.728,-75.37 914.734,-73.5121 928.899,-72 1153.58,-48.0171 1418.41,-31.248 1558.49,-23.2771"/>
<polygon fill="black" stroke="black" points="1558.98,-26.7549 1568.77,-22.6952 1558.58,-19.7661 1558.98,-26.7549"/>
</g>
<!-- GarbageCollectExpired -->
<g id="node47" class="node"><title>GarbageCollectExpired</title>
<ellipse fill="grey" stroke="black" cx="1509.9" cy="-90" rx="100.091" ry="18"/>
<text text-anchor="middle" x="1509.9" y="-84.9" font-family="Times,serif" font-size="14.00">GarbageCollectExpired</text>
</g>
<!-- GarbageCollect&#45;&gt;GarbageCollectExpired -->
<g id="edge45" class="edge"><title>GarbageCollect&#45;&gt;GarbageCollectExpired</title>
<path fill="none" stroke="black" d="M1022.72,-149.466C1032.05,-147.436 1041.74,-145.509 1050.9,-144 1205.2,-118.583 1245.91,-128.749 1400.9,-108 1409.6,-106.835 1418.68,-105.511 1427.71,-104.123"/>
<polygon fill="black" stroke="black" points="1428.54,-107.536 1437.88,-102.532 1427.45,-100.62 1428.54,-107.536"/>
</g>
<!-- GarbageCollectEvict -->
<g id="node48" class="node"><title>GarbageCollectEvict</title>
<ellipse fill="grey" stroke="black" cx="1027.9" cy="-90" rx="89.8429" ry="18"/>
<text text-anchor="middle" x="1027.9" y="-84.9" font-family="Times,serif" font-size="14.00">GarbageCollectEvict</text>
</g>
<!-- GarbageCollect&#45;&gt;GarbageCollectEvict -->
<g id="edge46" class="edge"><title>GarbageCollect&#45;&gt;GarbageCollectEvict</title>
<path fill="none" stroke="black" d="M985.742,-144.202C992.406,-135.635 1000.52,-125.201 1007.85,-115.784"/>
<polygon fill="black" stroke="black" points="1010.65,-117.885 1014.02,-107.843 1005.12,-113.587 1010.65,-117.885"/>
</g>
<!-- GarbageCollectExpired&#45;&gt;InternalDeleteCookie -->
<g id="edge48" class="edge"><title>GarbageCollectExpired&#45;&gt;InternalDeleteCookie</title>
<path fill="none" stroke="black" d="M1544.74,-72.937C1565.39,-62.8215 1591.73,-49.9175 1613.7,-39.1578"/>
<polygon fill="black" stroke="black" points="1615.38,-42.2341 1622.82,-34.6921 1612.3,-35.9476 1615.38,-42.2341"/>
</g>
<!-- GarbageCollectEvict&#45;&gt;InternalDeleteCookie -->
<g id="edge50" class="edge"><title>GarbageCollectEvict&#45;&gt;InternalDeleteCookie</title>
<path fill="none" stroke="black" d="M1092.75,-77.4582C1104.11,-75.4767 1115.83,-73.5678 1126.9,-72 1278.38,-50.5458 1455.38,-34.2713 1561.68,-25.4402"/>
<polygon fill="black" stroke="black" points="1562.06,-28.9204 1571.74,-24.6089 1561.49,-21.9442 1562.06,-28.9204"/>
</g>
<!-- DeleteAll -->
<g id="node51" class="node"><title>DeleteAll</title>
<ellipse fill="green" stroke="red" cx="1970.9" cy="-472" rx="48.0957" ry="18"/>
<ellipse fill="none" stroke="red" cx="1970.9" cy="-472" rx="52.0957" ry="22"/>
<text text-anchor="middle" x="1970.9" y="-466.9" font-family="Times,serif" font-size="14.00">DeleteAll</text>
</g>
<!-- DeleteAll&#45;&gt;InternalDeleteCookie -->
<g id="edge53" class="edge"><title>DeleteAll&#45;&gt;InternalDeleteCookie</title>
<path fill="none" stroke="black" d="M1955.76,-450.888C1935.45,-420.436 1901.9,-361.71 1901.9,-306 1901.9,-306 1901.9,-306 1901.9,-162 1901.9,-84.7211 1810.18,-48.1005 1738.98,-31.3148"/>
<polygon fill="black" stroke="black" points="1739.61,-27.8683 1729.08,-29.0758 1738.06,-34.6958 1739.61,-27.8683"/>
</g>
<!-- DeleteAll&#45;&gt;InitIfNecessary -->
<g id="edge54" class="edge"><title>DeleteAll&#45;&gt;InitIfNecessary</title>
<path fill="none" stroke="black" d="M1932.1,-457.131C1924.78,-454.577 1917.15,-452.079 1909.9,-450 1836.91,-429.073 1815.91,-434.828 1742.9,-414 1674.36,-394.448 1659.29,-383.209 1591.9,-360 1555.12,-347.332 1513.48,-333.547 1481.49,-323.076"/>
<polygon fill="black" stroke="black" points="1482.48,-319.718 1471.89,-319.937 1480.31,-326.371 1482.48,-319.718"/>
</g>
<!-- DeleteAllCreatedBetween -->
<g id="node54" class="node"><title>DeleteAllCreatedBetween</title>
<ellipse fill="green" stroke="red" cx="2154.9" cy="-472" rx="110.008" ry="18"/>
<ellipse fill="none" stroke="red" cx="2154.9" cy="-472" rx="113.99" ry="22"/>
<text text-anchor="middle" x="2154.9" y="-466.9" font-family="Times,serif" font-size="14.00">DeleteAllCreatedBetween</text>
</g>
<!-- DeleteAllCreatedBetween&#45;&gt;InternalDeleteCookie -->
<g id="edge57" class="edge"><title>DeleteAllCreatedBetween&#45;&gt;InternalDeleteCookie</title>
<path fill="none" stroke="black" d="M2129.03,-450.481C2097.08,-421.33 2046.9,-365.997 2046.9,-306 2046.9,-306 2046.9,-306 2046.9,-162 2046.9,-96.755 1852.39,-51.8448 1738.1,-31.0887"/>
<polygon fill="black" stroke="black" points="1738.44,-27.5938 1727.98,-29.2755 1737.2,-34.4841 1738.44,-27.5938"/>
</g>
<!-- DeleteAllCreatedBetween&#45;&gt;InitIfNecessary -->
<g id="edge58" class="edge"><title>DeleteAllCreatedBetween&#45;&gt;InitIfNecessary</title>
<path fill="none" stroke="black" d="M2083.94,-454.743C1991.35,-432.339 1824.23,-392.286 1680.9,-360 1616.65,-345.528 1542.98,-329.846 1491.96,-319.131"/>
<polygon fill="black" stroke="black" points="1492.57,-315.683 1482.07,-317.055 1491.13,-322.534 1492.57,-315.683"/>
</g>
<!-- DeleteAllCreatedAfter -->
<g id="node57" class="node"><title>DeleteAllCreatedAfter</title>
<ellipse fill="green" stroke="black" cx="2154.9" cy="-557" rx="96.8414" ry="18"/>
<text text-anchor="middle" x="2154.9" y="-551.9" font-family="Times,serif" font-size="14.00">DeleteAllCreatedAfter</text>
</g>
<!-- DeleteAllCreatedAfter&#45;&gt;DeleteAllCreatedBetween -->
<g id="edge60" class="edge"><title>DeleteAllCreatedAfter&#45;&gt;DeleteAllCreatedBetween</title>
<path fill="none" stroke="black" d="M2154.9,-538.974C2154.9,-528.974 2154.9,-516.233 2154.9,-504.554"/>
<polygon fill="black" stroke="black" points="2158.4,-504.236 2154.9,-494.236 2151.4,-504.236 2158.4,-504.236"/>
</g>
<!-- DeleteAllForHost -->
<g id="node59" class="node"><title>DeleteAllForHost</title>
<ellipse fill="green" stroke="red" cx="1427.9" cy="-472" rx="78.8182" ry="18"/>
<ellipse fill="none" stroke="red" cx="1427.9" cy="-472" rx="82.7942" ry="22"/>
<text text-anchor="middle" x="1427.9" y="-466.9" font-family="Times,serif" font-size="14.00">DeleteAllForHost</text>
</g>
<!-- DeleteAllForHost&#45;&gt;InternalDeleteCookie -->
<g id="edge63" class="edge"><title>DeleteAllForHost&#45;&gt;InternalDeleteCookie</title>
<path fill="none" stroke="black" d="M1468.24,-452.712C1529.58,-420.829 1644.04,-350.707 1689.9,-252 1723.61,-179.449 1711.57,-149.01 1689.9,-72 1687.19,-62.3689 1682.23,-52.757 1676.97,-44.3691"/>
<polygon fill="black" stroke="black" points="1679.7,-42.1635 1671.23,-35.8049 1673.89,-46.0605 1679.7,-42.1635"/>
</g>
<!-- DeleteAllForHost&#45;&gt;InitIfNecessary -->
<g id="edge64" class="edge"><title>DeleteAllForHost&#45;&gt;InitIfNecessary</title>
<path fill="none" stroke="black" d="M1428.03,-449.956C1428.21,-420.163 1428.53,-367.017 1428.73,-334.304"/>
<polygon fill="black" stroke="black" points="1432.23,-334.077 1428.79,-324.056 1425.23,-334.035 1432.23,-334.077"/>
</g>
<!-- DeleteAllForHost&#45;&gt;HasCookieableScheme -->
<g id="edge65" class="edge"><title>DeleteAllForHost&#45;&gt;HasCookieableScheme</title>
<path fill="none" stroke="black" d="M1368.76,-456.563C1357.89,-454.095 1346.59,-451.773 1335.9,-450 1251.78,-436.05 1030.71,-451.019 953.899,-414 923.885,-399.534 928.592,-379.94 901.899,-360 884.967,-347.351 864.649,-336.075 846.483,-327.141"/>
<polygon fill="black" stroke="black" points="847.738,-323.861 837.209,-322.688 844.708,-330.171 847.738,-323.861"/>
</g>
<!-- DeleteAllForHost&#45;&gt;GetKey -->
<g id="edge110" class="edge"><title>DeleteAllForHost&#45;&gt;GetKey</title>
<path fill="none" stroke="black" d="M1444.71,-450.101C1480.14,-401.178 1554.21,-282.122 1490.9,-216 1443.49,-166.478 1406.52,-199.854 1340.9,-180 1337.96,-179.11 1334.94,-178.14 1331.91,-177.127"/>
<polygon fill="black" stroke="black" points="1332.89,-173.764 1322.3,-173.789 1330.59,-180.376 1332.89,-173.764"/>
</g>
<!-- SetCookieWithOptions -->
<g id="node62" class="node"><title>SetCookieWithOptions</title>
<ellipse fill="green" stroke="red" cx="348.899" cy="-472" rx="98.1413" ry="18"/>
<ellipse fill="none" stroke="red" cx="348.899" cy="-472" rx="102.141" ry="22"/>
<text text-anchor="middle" x="348.899" y="-466.9" font-family="Times,serif" font-size="14.00">SetCookieWithOptions</text>
</g>
<!-- SetCookieWithOptions&#45;&gt;SetCookieWithCreationTimeAndOptions -->
<g id="edge67" class="edge"><title>SetCookieWithOptions&#45;&gt;SetCookieWithCreationTimeAndOptions</title>
<path fill="none" stroke="black" d="M407.644,-453.974C452.568,-440.188 514.475,-421.192 560.885,-406.95"/>
<polygon fill="black" stroke="black" points="562.008,-410.267 570.541,-403.987 559.954,-403.575 562.008,-410.267"/>
</g>
<!-- DeleteCanonicalCookie -->
<g id="node64" class="node"><title>DeleteCanonicalCookie</title>
<ellipse fill="green" stroke="red" cx="1795.9" cy="-472" rx="100.91" ry="18"/>
<ellipse fill="none" stroke="red" cx="1795.9" cy="-472" rx="104.892" ry="22"/>
<text text-anchor="middle" x="1795.9" y="-466.9" font-family="Times,serif" font-size="14.00">DeleteCanonicalCookie</text>
</g>
<!-- DeleteCanonicalCookie&#45;&gt;InternalDeleteCookie -->
<g id="edge70" class="edge"><title>DeleteCanonicalCookie&#45;&gt;InternalDeleteCookie</title>
<path fill="none" stroke="black" d="M1795.68,-449.982C1795.39,-418.192 1794.9,-357.588 1794.9,-306 1794.9,-306 1794.9,-306 1794.9,-162 1794.9,-106.308 1740.43,-63.7554 1699.93,-39.8147"/>
<polygon fill="black" stroke="black" points="1701.43,-36.6391 1691.01,-34.7046 1697.95,-42.7128 1701.43,-36.6391"/>
</g>
<!-- DeleteCanonicalCookie&#45;&gt;InitIfNecessary -->
<g id="edge71" class="edge"><title>DeleteCanonicalCookie&#45;&gt;InitIfNecessary</title>
<path fill="none" stroke="black" d="M1735.09,-453.944C1702.49,-443.564 1661.92,-429.52 1626.9,-414 1581.43,-393.853 1572.56,-383.815 1528.9,-360 1508.9,-349.088 1486.59,-337.032 1468.13,-327.084"/>
<polygon fill="black" stroke="black" points="1469.59,-323.898 1459.13,-322.238 1466.28,-330.061 1469.59,-323.898"/>
</g>
<!-- DeleteCanonicalCookie&#45;&gt;GetKey -->
<g id="edge111" class="edge"><title>DeleteCanonicalCookie&#45;&gt;GetKey</title>
<path fill="none" stroke="black" d="M1779.01,-449.96C1739.18,-399.669 1633.83,-276.167 1515.9,-216 1445.17,-179.913 1417.27,-201.751 1340.9,-180 1337.94,-179.158 1334.91,-178.224 1331.88,-177.236"/>
<polygon fill="black" stroke="black" points="1332.84,-173.868 1322.25,-173.947 1330.58,-180.492 1332.84,-173.868"/>
</g>
<!-- DeleteCookie -->
<g id="node67" class="node"><title>DeleteCookie</title>
<ellipse fill="green" stroke="red" cx="1035.9" cy="-472" rx="63.2225" ry="18"/>
<ellipse fill="none" stroke="red" cx="1035.9" cy="-472" rx="67.1929" ry="22"/>
<text text-anchor="middle" x="1035.9" y="-466.9" font-family="Times,serif" font-size="14.00">DeleteCookie</text>
</g>
<!-- DeleteCookie&#45;&gt;InternalDeleteCookie -->
<g id="edge74" class="edge"><title>DeleteCookie&#45;&gt;InternalDeleteCookie</title>
<path fill="none" stroke="black" d="M1086.15,-457.334C1094.74,-454.863 1103.57,-452.342 1111.9,-450 1170.44,-433.545 1192.44,-446.401 1243.9,-414 1275.23,-394.273 1320.9,-306.62 1352.9,-288 1423.79,-246.75 1461.7,-290.916 1533.9,-252 1603.85,-214.294 1614.93,-183.446 1639.9,-108 1646.55,-87.9032 1650.88,-64.3701 1653.51,-46.4091"/>
<polygon fill="black" stroke="black" points="1657,-46.6691 1654.89,-36.2867 1650.07,-45.7191 1657,-46.6691"/>
</g>
<!-- DeleteCookie&#45;&gt;InitIfNecessary -->
<g id="edge75" class="edge"><title>DeleteCookie&#45;&gt;InitIfNecessary</title>
<path fill="none" stroke="black" d="M1084.72,-456.852C1093.71,-454.354 1103.05,-451.948 1111.9,-450 1215.52,-427.2 1257.69,-469.863 1347.9,-414 1372.85,-398.549 1368.31,-383.489 1385.9,-360 1392.87,-350.696 1400.73,-340.69 1407.81,-331.849"/>
<polygon fill="black" stroke="black" points="1410.75,-333.775 1414.3,-323.792 1405.3,-329.384 1410.75,-333.775"/>
</g>
<!-- DeleteCookie&#45;&gt;HasCookieableScheme -->
<g id="edge76" class="edge"><title>DeleteCookie&#45;&gt;HasCookieableScheme</title>
<path fill="none" stroke="black" d="M995.117,-454.516C972.474,-444.062 944.251,-429.765 920.899,-414 884.133,-389.178 846.469,-354.469 822.674,-331.162"/>
<polygon fill="black" stroke="black" points="825.026,-328.565 815.455,-324.022 820.104,-333.542 825.026,-328.565"/>
</g>
<!-- DeleteCookie&#45;&gt;FindCookiesForHostAndDomain -->
<g id="edge77" class="edge"><title>DeleteCookie&#45;&gt;FindCookiesForHostAndDomain</title>
<path fill="none" stroke="black" d="M1051.8,-450.551C1060.19,-439.232 1070.55,-425.249 1079.42,-413.283"/>
<polygon fill="black" stroke="black" points="1082.42,-415.112 1085.56,-404.994 1076.8,-410.944 1082.42,-415.112"/>
</g>
<!-- GetAllCookies -->
<g id="node70" class="node"><title>GetAllCookies</title>
<ellipse fill="green" stroke="red" cx="1600.9" cy="-472" rx="68.2439" ry="18"/>
<ellipse fill="none" stroke="red" cx="1600.9" cy="-472" rx="72.2439" ry="22"/>
<text text-anchor="middle" x="1600.9" y="-466.9" font-family="Times,serif" font-size="14.00">GetAllCookies</text>
</g>
<!-- GetAllCookies&#45;&gt;InitIfNecessary -->
<g id="edge80" class="edge"><title>GetAllCookies&#45;&gt;InitIfNecessary</title>
<path fill="none" stroke="black" d="M1579.12,-450.976C1547.26,-420.236 1488.11,-363.145 1454.32,-330.53"/>
<polygon fill="black" stroke="black" points="1456.73,-327.998 1447.11,-323.572 1451.87,-333.035 1456.73,-327.998"/>
</g>
<!-- GetAllCookies&#45;&gt;GarbageCollectExpired -->
<g id="edge81" class="edge"><title>GetAllCookies&#45;&gt;GarbageCollectExpired</title>
<path fill="none" stroke="black" d="M1600.68,-449.982C1600.39,-418.192 1599.9,-357.588 1599.9,-306 1599.9,-306 1599.9,-306 1599.9,-234 1599.9,-193.118 1602.76,-178.543 1580.9,-144 1573.17,-131.786 1561.64,-121.299 1550.1,-112.905"/>
<polygon fill="black" stroke="black" points="1551.98,-109.949 1541.76,-107.167 1548.01,-115.717 1551.98,-109.949"/>
</g>
<!-- GetAllCookiesForURL -->
<g id="node73" class="node"><title>GetAllCookiesForURL</title>
<ellipse fill="green" stroke="red" cx="1223.9" cy="-472" rx="98.9608" ry="18"/>
<ellipse fill="none" stroke="red" cx="1223.9" cy="-472" rx="102.941" ry="22"/>
<text text-anchor="middle" x="1223.9" y="-466.9" font-family="Times,serif" font-size="14.00">GetAllCookiesForURL</text>
</g>
<!-- GetAllCookiesForURL&#45;&gt;InitIfNecessary -->
<g id="edge84" class="edge"><title>GetAllCookiesForURL&#45;&gt;InitIfNecessary</title>
<path fill="none" stroke="black" d="M1303.36,-457.885C1332.32,-449.329 1363.44,-435.683 1385.9,-414 1408.03,-392.631 1419.05,-358.416 1424.35,-334.231"/>
<polygon fill="black" stroke="black" points="1427.82,-334.718 1426.34,-324.227 1420.95,-333.351 1427.82,-334.718"/>
</g>
<!-- GetAllCookiesForURL&#45;&gt;FindCookiesForHostAndDomain -->
<g id="edge85" class="edge"><title>GetAllCookiesForURL&#45;&gt;FindCookiesForHostAndDomain</title>
<path fill="none" stroke="black" d="M1193,-450.989C1175.03,-438.766 1152.32,-423.325 1133.71,-410.674"/>
<polygon fill="black" stroke="black" points="1135.46,-407.625 1125.22,-404.897 1131.52,-413.414 1135.46,-407.625"/>
</g>
<!-- FindCookiesForKey&#45;&gt;InternalDeleteCookie -->
<g id="edge93" class="edge"><title>FindCookiesForKey&#45;&gt;InternalDeleteCookie</title>
<path fill="none" stroke="black" d="M1283.41,-293.851C1361.13,-279.316 1481.47,-256.384 1490.9,-252 1568.55,-215.914 1582.23,-185.379 1618.9,-108 1628.71,-87.3091 1638.74,-63.4124 1646.03,-45.445"/>
<polygon fill="black" stroke="black" points="1649.29,-46.7147 1649.78,-36.1311 1642.8,-44.1 1649.29,-46.7147"/>
</g>
<!-- InternalUpdateCookieAccessTime -->
<g id="node82" class="node"><title>InternalUpdateCookieAccessTime</title>
<ellipse fill="grey" stroke="black" cx="1236.9" cy="-234" rx="141.037" ry="18"/>
<text text-anchor="middle" x="1236.9" y="-228.9" font-family="Times,serif" font-size="14.00">InternalUpdateCookieAccessTime</text>
</g>
<!-- FindCookiesForKey&#45;&gt;InternalUpdateCookieAccessTime -->
<g id="edge94" class="edge"><title>FindCookiesForKey&#45;&gt;InternalUpdateCookieAccessTime</title>
<path fill="none" stroke="black" d="M1222.69,-287.831C1224.75,-280.046 1227.2,-270.773 1229.48,-262.135"/>
<polygon fill="black" stroke="black" points="1232.87,-262.975 1232.04,-252.413 1226.1,-261.189 1232.87,-262.975"/>
</g>
<!-- SetCookieWithCreationTime -->
<g id="node83" class="node"><title>SetCookieWithCreationTime</title>
<ellipse fill="grey" stroke="red" cx="593.899" cy="-472" rx="121.055" ry="18"/>
<ellipse fill="none" stroke="red" cx="593.899" cy="-472" rx="125.039" ry="22"/>
<text text-anchor="middle" x="593.899" y="-466.9" font-family="Times,serif" font-size="14.00">SetCookieWithCreationTime</text>
</g>
<!-- SetCookieWithCreationTime&#45;&gt;SetCookieWithCreationTimeAndOptions -->
<g id="edge96" class="edge"><title>SetCookieWithCreationTime&#45;&gt;SetCookieWithCreationTimeAndOptions</title>
<path fill="none" stroke="black" d="M602.307,-449.667C606.346,-438.939 611.225,-425.979 615.496,-414.635"/>
<polygon fill="black" stroke="black" points="618.808,-415.771 619.056,-405.179 612.257,-413.305 618.808,-415.771"/>
</g>
<!-- SetCookie -->
<g id="node85" class="node"><title>SetCookie</title>
<ellipse fill="green" stroke="black" cx="233.899" cy="-557" rx="100.892" ry="18"/>
<text text-anchor="middle" x="233.899" y="-551.9" font-family="Times,serif" font-size="14.00">CookieStore::SetCookie</text>
</g>
<!-- SetCookie&#45;&gt;SetCookieWithOptions -->
<g id="edge98" class="edge"><title>SetCookie&#45;&gt;SetCookieWithOptions</title>
<path fill="none" stroke="black" d="M257.728,-539.388C273.332,-527.854 294.045,-512.545 311.784,-499.433"/>
<polygon fill="black" stroke="black" points="314.257,-501.958 320.218,-493.199 310.096,-496.328 314.257,-501.958"/>
</g>
<!-- GetCookies -->
<g id="node87" class="node"><title>GetCookies</title>
<ellipse fill="green" stroke="black" cx="843.899" cy="-557" rx="106.09" ry="18"/>
<text text-anchor="middle" x="843.899" y="-551.9" font-family="Times,serif" font-size="14.00">CookieStore::GetCookies</text>
</g>
<!-- GetCookies&#45;&gt;GetCookiesWithOptions -->
<g id="edge100" class="edge"><title>GetCookies&#45;&gt;GetCookiesWithOptions</title>
<path fill="none" stroke="black" d="M843.899,-538.974C843.899,-528.974 843.899,-516.233 843.899,-504.554"/>
<polygon fill="black" stroke="black" points="847.4,-504.236 843.899,-494.236 840.4,-504.236 847.4,-504.236"/>
</g>
<!-- SetCookiesWithOptions&#45;&gt;SetCookieWithOptions -->
<g id="edge102" class="edge"><title>SetCookiesWithOptions&#45;&gt;SetCookieWithOptions</title>
<path fill="none" stroke="black" d="M428.386,-531.267C414.927,-521.231 399.476,-509.711 385.797,-499.511"/>
<polygon fill="black" stroke="black" points="387.651,-496.528 377.542,-493.357 383.467,-502.14 387.651,-496.528"/>
</g>
<!-- GetKey&#45;&gt;GetEffectiveDomain -->
<g id="edge113" class="edge"><title>GetKey&#45;&gt;GetEffectiveDomain</title>
<path fill="none" stroke="black" d="M1262.5,-149.645C1256.14,-147.412 1249.37,-145.363 1242.9,-144 993.636,-91.5356 923.724,-139.063 670.899,-108 662.843,-107.01 654.448,-105.779 646.109,-104.427"/>
<polygon fill="black" stroke="black" points="646.432,-100.932 635.991,-102.727 645.272,-107.836 646.432,-100.932"/>
</g>
<!-- RegistryControlledDomainService -->
<g id="node98" class="node"><title>RegistryControlledDomainService</title>
<ellipse fill="none" stroke="black" cx="572.899" cy="-18" rx="141.187" ry="18"/>
<text text-anchor="middle" x="572.899" y="-12.9" font-family="Times,serif" font-size="14.00">RegistryControlledDomainService</text>
</g>
<!-- GetEffectiveDomain&#45;&gt;RegistryControlledDomainService -->
<g id="edge115" class="edge"><title>GetEffectiveDomain&#45;&gt;RegistryControlledDomainService</title>
<path fill="none" stroke="black" d="M572.899,-71.8314C572.899,-64.131 572.899,-54.9743 572.899,-46.4166"/>
<polygon fill="black" stroke="black" points="576.4,-46.4132 572.899,-36.4133 569.4,-46.4133 576.4,-46.4132"/>
</g>
<!-- GetEffectiveDomain&#45;&gt;DomainIsHostOnly -->
<g id="edge127" class="edge"><title>GetEffectiveDomain&#45;&gt;DomainIsHostOnly</title>
<path fill="none" stroke="black" d="M522.757,-75.0816C484.132,-63.5897 430.633,-47.6727 389.939,-35.5655"/>
<polygon fill="black" stroke="black" points="390.733,-32.1501 380.15,-32.653 388.736,-38.8594 390.733,-32.1501"/>
</g>
<!-- GetCookieDomain&#45;&gt;GetCookieDomainWithString -->
<g id="edge119" class="edge"><title>GetCookieDomain&#45;&gt;GetCookieDomainWithString</title>
<path fill="none" stroke="black" d="M514.596,-291.256C479.578,-280.341 431.531,-265.366 393.357,-253.467"/>
<polygon fill="black" stroke="black" points="393.965,-249.991 383.377,-250.357 391.882,-256.674 393.965,-249.991"/>
</g>
<!-- FindRawCookies -->
<g id="node109" class="node"><title>FindRawCookies</title>
<ellipse fill="grey" stroke="black" cx="2558.9" cy="-647" rx="76.0433" ry="18"/>
<text text-anchor="middle" x="2558.9" y="-641.9" font-family="Times,serif" font-size="14.00">FindRawCookies</text>
</g>
</g>
</svg>
